<?xml version="1.0" standalone="no"?>
<!DOCTYPE svg PUBLIC "-//W3C//DTD SVG 20010904//EN"
 "http://www.w3.org/TR/2001/REC-SVG-20010904/DTD/svg10.dtd">
<svg version="1.0" xmlns="http://www.w3.org/2000/svg"
 width="980.000000pt" height="980.000000pt" viewBox="0 0 980.000000 980.000000"
 preserveAspectRatio="xMidYMid meet">
<metadata>
Created by potrace 1.16, written by Peter Selinger 2001-2019
</metadata>
<g transform="translate(0.000000,980.000000) scale(0.100000,-0.100000)"
fill="#000000" stroke="none">
<path d="M3115 7839 c-217 -16 -363 -53 -526 -135 -313 -156 -532 -455 -603
-819 -32 -163 -36 -395 -36 -2000 0 -1592 4 -1800 35 -1970 77 -417 364 -751
762 -886 236 -79 288 -81 2278 -76 1256 3 1702 7 1769 16 412 57 732 274 908
616 84 163 121 318 138 563 13 205 13 3316 0 3512 -12 176 -30 278 -69 392
-116 343 -376 603 -719 719 -118 40 -219 57 -407 69 -195 12 -3356 11 -3530
-1z m544 -1180 c246 -56 385 -355 271 -586 -83 -169 -269 -267 -446 -234 -339
62 -469 457 -233 706 105 111 246 150 408 114z m2351 -1154 c157 -41 366 -170
451 -277 54 -68 151 -267 181 -372 l23 -81 0 -825 0 -825 -355 0 -355 0 -5
705 c-6 767 -4 741 -64 844 -80 137 -257 211 -444 185 -205 -29 -322 -127
-381 -323 -20 -66 -21 -87 -21 -737 l0 -669 -22 -5 c-13 -3 -174 -4 -358 -3
l-335 3 -3 1183 -2 1182 335 0 335 0 0 -165 0 -166 78 79 c136 140 313 236
512 278 89 18 342 12 430 -11z m-2092 -1197 l-3 -1183 -365 0 -365 0 -3 1170
c-1 644 0 1176 3 1183 3 9 87 12 370 12 l365 0 -2 -1182z"/>
</g>
</svg>
