<?xml version="1.0" standalone="no"?>
<!DOCTYPE svg PUBLIC "-//W3C//DTD SVG 20010904//EN"
 "http://www.w3.org/TR/2001/REC-SVG-20010904/DTD/svg10.dtd">
<svg version="1.0" xmlns="http://www.w3.org/2000/svg"
 width="640.000000pt" height="443.000000pt" viewBox="0 0 640.000000 443.000000"
 preserveAspectRatio="xMidYMid meet">
<metadata>
Created by potrace 1.16, written by Peter Selinger 2001-2019
</metadata>
<g transform="translate(0.000000,443.000000) scale(0.100000,-0.100000)"
fill="#000000" stroke="none">
<path d="M2600 4413 c-763 -10 -1508 -60 -1825 -124 -241 -48 -441 -203 -551
-427 -107 -220 -175 -861 -175 -1657 0 -631 38 -1108 115 -1447 68 -296 260
-514 531 -601 269 -87 1257 -141 2580 -141 1242 0 2040 44 2378 129 146 37
308 144 410 270 57 71 121 196 142 280 40 157 89 520 117 870 18 218 18 1126
0 1335 -29 349 -69 627 -114 805 -79 313 -309 530 -638 600 -361 77 -1687 125
-2970 108z m815 -1730 c440 -253 799 -464 799 -469 -2 -10 -1586 -923 -1616
-931 -17 -5 -18 44 -18 932 0 888 1 937 18 932 9 -2 377 -211 817 -464z"/>
</g>
</svg>
